# xmcd
#
# Track frame offsets:
#	150
#	18667
#	38922
#	57487
#	82117
#	96597
#	112882
#	127202
#	144310
#	155267
#	167815
#	184262
#
# Disc length: 2754 seconds
#
# Revision: 1
# Processed by: cddbd v1.4PL0 Copyright (c) Steve Scherf et al.
# Submitted via: audiograbber 1.81.03
#
DISCID=aa0ac00c
DTITLE=Holland K Smith - Walking Heart Attack
DYEAR=1900
DGENRE=
TTITLE0=Walking Heart Attack
TTITLE1=Devil And The Deep Blue Sea
TTITLE2=Deacon's Son
TTITLE3=Little Boy Blues
TTITLE4=Hypnotized
TTITLE5=Queen Of Sheeba
TTITLE6=This, That And The Other
TTITLE7=Take Me Back To Memphis
TTITLE8=Cindy Lee
TTITLE9=For Cryin' Out Loud
TTITLE10=Beautician Blues
TTITLE11=Night Train
EXTD=
EXTT0=
EXTT1=
EXTT2=
EXTT3=
EXTT4=
EXTT5=
EXTT6=
EXTT7=
EXTT8=
EXTT9=
EXTT10=
EXTT11=
PLAYORDER=
